<svg width="20" height="20" viewBox="0 0 20 20" fill="none" xmlns="http://www.w3.org/2000/svg">
<path d="M10.625 12.5009V13.1259C10.625 13.2917 10.5592 13.4507 10.4419 13.5679C10.3247 13.6851 10.1658 13.7509 10 13.7509C9.83424 13.7509 9.67527 13.6851 9.55806 13.5679C9.44085 13.4507 9.375 13.2917 9.375 13.1259V12.5009H4.375C3.48023 12.5011 2.60718 12.2253 1.875 11.7109V16.2509C1.875 16.7482 2.07254 17.2251 2.42417 17.5768C2.77581 17.9284 3.25272 18.1259 3.75 18.1259H16.25C16.7473 18.1259 17.2242 17.9284 17.5758 17.5768C17.9275 17.2251 18.125 16.7482 18.125 16.2509V11.7109C17.3928 12.2253 16.5198 12.5011 15.625 12.5009H10.625Z" fill="#A88B55"/>
<path d="M16.875 4.375H13.75V3.75C13.75 3.25272 13.5525 2.77581 13.2008 2.42417C12.8492 2.07254 12.3723 1.875 11.875 1.875H8.125C7.62772 1.875 7.15081 2.07254 6.79917 2.42417C6.44754 2.77581 6.25 3.25272 6.25 3.75V4.375H3.125C2.62772 4.375 2.15081 4.57254 1.79917 4.92417C1.44754 5.27581 1.25 5.75272 1.25 6.25V8.125C1.25099 8.9535 1.58055 9.74778 2.16639 10.3336C2.75222 10.9194 3.5465 11.249 4.375 11.25H9.375V10.625C9.375 10.4592 9.44085 10.3003 9.55806 10.1831C9.67527 10.0658 9.83424 10 10 10C10.1658 10 10.3247 10.0658 10.4419 10.1831C10.5592 10.3003 10.625 10.4592 10.625 10.625V11.25H15.625C16.4535 11.249 17.2478 10.9194 17.8336 10.3336C18.4194 9.74778 18.749 8.9535 18.75 8.125V6.25C18.75 5.75272 18.5525 5.27581 18.2008 4.92417C17.8492 4.57254 17.3723 4.375 16.875 4.375ZM7.5 4.375V3.75C7.5 3.58424 7.56585 3.42527 7.68306 3.30806C7.80027 3.19085 7.95924 3.125 8.125 3.125H11.875C12.0408 3.125 12.1997 3.19085 12.3169 3.30806C12.4342 3.42527 12.5 3.58424 12.5 3.75V4.375H7.5Z" fill="#C9A96E"/>
</svg>
